<?xml version="1.0" encoding="utf-8"?>
<!-- Generator: Adobe Illustrator 16.0.0, SVG Export Plug-In . SVG Version: 6.00 Build 0)  -->
<!DOCTYPE svg PUBLIC "-//W3C//DTD SVG 1.1//EN" "http://www.w3.org/Graphics/SVG/1.1/DTD/svg11.dtd">
<svg version="1.1" id="Layer_1" xmlns="http://www.w3.org/2000/svg" xmlns:xlink="http://www.w3.org/1999/xlink" x="0px" y="0px"
	 width="496.533px" height="235.726px" viewBox="0 0 496.533 235.726" enable-background="new 0 0 496.533 235.726"
	 xml:space="preserve">
<path fill="#0091C6" d="M234.378,120.886c12.05,0.906,22.683,0,29.417-5.743c4.608-3.627,9.214-10.878,9.214-33.545
	c0-20.55,2.483-44.123,23.748-61.348c15.24-12.693,35.44-17.831,61.668-16.018v38.683c-13.112-1.208-22.684,0.906-29.418,6.648
	c-4.251,3.929-9.214,9.671-9.214,32.035c0,20.551-2.479,46.238-23.391,62.86c-15.241,12.39-36.151,16.621-62.025,15.11V120.886z"/>
<rect x="342" y="4.059" fill="#0091C6" width="58.646" height="37.11"/>
<path fill="#EDEDED" d="M496.533,151.71c0,51.68-30.826,84.016-80.692,84.016c-37.474,0-69.507-21.456-75.551-54.398h43.518
	c5.136,12.392,21.154,17.226,32.033,17.226c28.105,0,40.8-18.434,40.8-46.237v-6.951c-11.786,11.483-27.805,17.527-45.333,17.527
	c-41.099,0-74.646-36.264-74.646-80.991c0-45.03,32.94-81.901,80.086-81.901c46.842,0,79.785,36.871,79.785,81.901V151.71z
	 M416.748,37.475c-22.062,0-39.893,19.039-39.893,44.727c0,24.781,17.831,43.821,39.893,43.821
	c22.062,0,39.893-19.644,39.893-43.821C456.641,57.421,438.811,37.475,416.748,37.475z"/>
<path fill="#EDEDED" d="M238.446,159.568h-39.893V68.603c0-8.764-3.022-29.617-29.315-29.617c-17.529,0-30.22,12.088-30.22,29.617
	v90.965H99.125V68.603c0-8.764-2.72-29.617-29.012-29.617c-17.831,0-30.222,12.088-30.222,29.617v90.965H0V69.509
	C0,29.92,27.501,0,70.113,0c21.154,0,38.382,8.463,49.563,22.062C131.461,8.463,148.992,0,169.238,0
	c43.518,0,69.208,28.71,69.208,69.509V159.568z"/>
</svg>
